<svg width="28" height="28" viewBox="0 0 28 28" fill="none" xmlns="http://www.w3.org/2000/svg">
<g id="soil water content">
<g id="Subtract">
<path fill-rule="evenodd" clip-rule="evenodd" d="M9.54774 19.0238V10.0644L15.0747 7.93545V10.5502C15.0707 10.5773 15.0687 10.6052 15.0687 10.6337V19.0238H9.54774ZM14.3529 11.1092V16.1759H12.9529V11.1092H14.3529Z" fill="#9ECAFF"/>
<path d="M16.4747 19.0238H18.4523V12.7202L16.4747 11.8962V19.0238Z" fill="#9ECAFF"/>
<path fill-rule="evenodd" clip-rule="evenodd" d="M14 25.6199C20.4176 25.6199 25.62 20.4174 25.62 13.9999C25.62 7.58233 20.4176 2.37988 14 2.37988C7.58246 2.37988 2.38 7.58233 2.38 13.9999C2.38 20.4174 7.58246 25.6199 14 25.6199ZM15.6245 20.4238H8.70775C8.39847 20.4238 8.14774 20.1731 8.14774 19.8638V9.48778C8.14774 9.25617 8.29032 9.04846 8.50646 8.9652L15.7134 6.18915C16.0803 6.04785 16.4747 6.31861 16.4747 6.71173V10.3795L19.5077 11.6432C19.7163 11.7302 19.8523 11.9341 19.8523 12.1602V19.8638C19.8523 20.1731 19.6015 20.4238 19.2923 20.4238H15.6287L15.6245 20.4238Z" fill="#9ECAFF"/>
</g>
</g>
</svg>
