<svg width="129" height="129" viewBox="0 0 129 129" xmlns="http://www.w3.org/2000/svg">
  <g id="Group 179">
    <circle id="Ellipse 99" cx="64.968" cy="64.5546" r="63.0053" fill="#1160C1" stroke="#004593"
      stroke-width="2" />
    <g id="Frame">
      <path id="Vector"
        d="M64.3359 85.6357C64.3359 85.5093 64.3359 85.5093 64.3359 85.6357C64.3359 85.5093 64.3359 85.6357 64.3359 85.6357ZM72.8061 94.7379H72.5532C72.5532 94.7379 72.6796 94.8643 72.8061 94.7379ZM64.7152 67.6841C52.8317 67.6841 43.0974 77.292 43.0974 89.3019C43.0974 101.312 52.7053 110.92 64.7152 110.92C76.5986 110.92 86.333 101.312 86.333 89.3019C86.333 77.292 76.7251 67.6841 64.7152 67.6841ZM78.4949 76.1542C77.7364 76.1542 77.2307 76.1542 76.5986 76.5335C76.3458 76.6599 76.2194 76.9127 75.8401 77.0391C75.5873 77.1656 75.208 77.0391 74.9552 77.1656C73.9438 77.5448 74.0703 79.5675 72.8061 79.3147C72.174 79.1883 71.7947 78.4298 71.4154 77.9241C71.1626 77.5448 70.6569 77.1656 71.0362 76.6599H70.5305C70.7833 76.1542 71.4154 76.2806 71.5419 76.0278C71.7947 75.3957 70.7833 75.3957 70.4041 75.2693C70.7833 74.89 70.9098 75.3957 71.289 75.2693C71.6683 75.1428 71.1626 74.7636 70.9098 74.6372C70.7833 74.6372 69.6456 75.0164 70.2777 74.3843C69.3927 73.8787 68.5078 73.2466 67.6228 72.7409C67.4964 73.373 68.7606 73.7522 69.2663 73.8787C69.1399 74.1315 68.7606 74.5107 68.5078 74.3843C68.2549 74.2579 68.3814 73.7522 67.8757 73.8787C67.6228 74.6372 68.5078 74.3843 68.6342 74.89C68.7606 75.3957 68.2549 75.1428 68.1285 75.1428C68.1285 75.1428 67.7493 74.7636 67.7493 75.0164C67.7493 75.2693 68.2549 75.2693 68.3814 75.5221C67.7493 75.5221 67.37 75.2693 66.8643 75.0164C66.2322 74.6372 65.9794 74.6372 65.2209 74.6372C65.4737 74.5107 65.7265 74.5107 65.9794 74.3843C66.1058 74.2579 66.4851 73.8787 66.4851 73.7522C66.6115 73.373 66.4851 73.373 66.1058 73.1201C65.9794 72.9937 65.6001 72.488 65.0944 72.488C63.7038 72.2352 64.5888 73.7522 63.5774 74.0051C63.3246 74.0051 62.8189 73.8787 62.6925 74.1315C62.5661 74.2579 62.5661 74.6372 62.4396 74.7636C62.1868 75.0164 61.8075 75.0164 61.5547 75.2693C61.3019 75.3957 60.6698 75.9014 60.5433 76.1542C59.9112 77.292 61.8075 77.6712 62.5661 77.9241C62.9453 78.0505 63.8303 78.3033 63.9567 78.5562C64.2095 78.9354 63.7038 79.1883 64.2095 79.4411C64.3359 79.5675 64.7152 79.5675 64.8416 79.3147C65.0945 79.0619 64.7152 79.0619 64.7152 78.6826C64.5888 78.1769 64.8416 78.3033 65.0944 78.1769C65.6001 77.7977 65.4737 77.6712 65.3473 77.0391C65.2209 76.7863 64.8416 75.9014 65.2209 75.6485C65.6001 75.3957 66.4851 75.7749 66.8643 75.9014C67.2436 75.9014 67.4964 76.407 67.6228 76.6599C67.7493 76.7863 68.0021 77.0391 68.2549 77.0391C68.6342 77.0391 68.5078 76.6599 68.6342 76.5335C69.2663 76.1542 69.3927 76.6599 69.6456 77.1656C69.8984 77.6712 70.0248 77.7977 70.4041 78.1769C70.5305 78.3033 71.4154 78.809 71.289 79.1883C71.289 79.4411 70.4041 79.694 70.1512 79.8204C69.2663 80.0732 67.6228 79.3147 67.4964 80.7053C67.8757 80.5789 68.7606 79.8204 69.0135 80.1996C69.1399 80.3261 68.887 80.5789 69.0135 80.8317C69.1399 81.3374 69.5191 81.211 70.0248 81.0846H69.8984C70.4041 80.8317 70.4041 80.8317 70.6569 80.4525C70.7833 80.3261 70.9098 79.9468 71.0362 79.8204C71.4154 79.4411 71.5419 79.694 71.7947 79.9468C71.9211 80.0732 72.4268 80.9582 72.3004 80.8317C71.5419 80.7053 70.9098 80.7053 70.2777 81.0846C69.8984 81.3374 69.6456 81.5903 69.2663 81.7167C69.1399 81.7167 68.3814 81.8431 68.5078 81.7167C68.6342 81.5903 69.0135 81.4638 69.2663 81.211C68.7606 80.9582 68.3814 81.4638 68.0021 81.7167C67.6228 81.8431 67.4964 82.2224 67.2436 82.6016C67.1172 82.728 66.8643 82.728 66.7379 82.9809C66.6115 83.1073 66.6115 83.3601 66.4851 83.613C66.3586 83.7394 66.1058 83.613 66.1058 83.8658C65.9794 84.1187 66.2322 84.2451 66.1058 84.4979C65.9794 84.7508 65.4737 85.0036 65.2209 85.2564L65.3473 85.13C65.0945 85.3828 64.8416 85.5093 64.7152 85.7621C64.8416 86.1414 65.0945 87.0263 64.968 87.1527C64.3359 87.6584 63.9567 86.647 63.7038 86.3942C63.0717 85.5093 61.934 86.1414 61.049 86.1414C60.0377 86.2678 59.0263 87.532 59.6584 88.6698C59.9112 89.1754 60.5433 89.4283 61.049 89.3019C61.5547 89.1754 61.6811 88.4169 62.1868 88.4169C63.0717 88.4169 62.1868 89.3019 62.1868 89.6811C62.0604 89.934 62.3132 90.0604 62.5661 90.0604C62.8189 90.0604 63.1982 89.934 63.3246 90.0604C63.451 90.1868 63.451 90.5661 63.5774 90.4396C63.1982 90.6925 63.3246 91.451 63.7038 91.7038C64.0831 91.9567 64.5888 91.7038 64.968 91.8303C65.7265 92.0831 65.3473 91.8303 66.1058 91.3246C66.6115 91.0717 66.6115 91.3246 66.9907 91.3246C67.2436 91.3246 67.37 91.0717 67.7493 91.0717C68.0021 91.1982 68.1285 91.3246 68.5078 91.451H68.887C69.5191 91.5774 70.0248 91.9567 70.5305 92.3359C70.9098 92.5888 71.289 92.5888 71.7947 92.7152C72.174 92.8416 72.8061 93.3473 72.8061 93.853C72.8061 93.9794 72.4268 94.3587 72.4268 94.4851C72.5532 94.6115 73.1853 94.3586 73.3117 94.3586C73.3117 94.4851 72.8061 94.7379 72.8061 94.6115C72.8061 94.7379 73.0589 94.8643 73.1853 94.8643C73.4382 94.1058 73.8174 94.6115 74.1967 94.7379C74.5759 94.8643 75.0816 94.8643 75.4609 94.9907C75.8401 95.1172 76.5986 95.37 76.8515 95.6228C77.1043 96.0021 76.9779 96.5078 76.7251 96.887C76.4722 97.3927 75.9666 97.5191 75.7137 98.0248C75.5873 98.4041 75.7137 98.9098 75.5873 99.289C75.4609 99.9211 75.3345 99.6683 74.9552 100.048C74.5759 100.427 74.9552 100.3 74.4495 100.553C73.9438 100.806 73.5646 100.68 73.1853 101.185V101.059C73.0589 101.312 72.9325 101.691 72.9325 101.817C72.8061 102.197 72.5532 102.323 72.3004 102.576C72.174 102.702 71.289 103.967 71.289 103.84C71.1626 103.714 70.5305 103.967 70.5305 103.84C70.5305 103.967 70.5305 103.967 70.6569 104.093C70.5305 105.104 70.0248 105.231 69.0135 105.231C69.1399 105.736 68.6342 105.61 68.3814 105.863C68.2549 105.989 68.2549 106.495 68.1285 106.621C68.1285 106.748 67.6228 107.253 67.6228 107.38C67.6228 107.506 67.7493 107.633 67.8757 107.759C67.1172 107.886 66.4851 108.012 65.7266 108.012C65.853 107.886 65.853 107.633 65.4737 107.633C65.6001 107.253 65.853 107.127 65.9794 106.874V106.495C66.1058 105.989 66.1058 106.242 65.9794 105.863C65.7265 104.978 66.1058 104.725 66.3586 103.84C66.6115 102.955 66.6115 101.944 66.7379 100.932C66.8643 100.553 66.9907 99.5419 66.7379 99.1626C66.6115 98.6569 65.853 98.2777 65.4737 98.0248C64.968 97.5191 64.7152 97.1399 64.3359 96.5078C64.2095 96.2549 63.9567 96.0021 63.8303 95.6228C63.5774 94.9908 63.8303 95.37 63.8303 94.9907C63.8303 94.6115 63.8303 94.2322 63.9567 93.853C64.0831 93.4737 64.4624 93.0945 64.7152 92.7152C64.8416 92.3359 64.7152 91.8303 64.3359 91.7038C64.0831 91.5774 63.8303 91.8303 63.7038 91.7038C63.451 91.7038 63.0717 91.451 62.8189 91.1982C62.4396 90.9453 62.3132 90.5661 61.934 90.3132C61.6811 90.0604 61.4283 90.1868 61.049 90.1868C60.6698 90.0604 60.5433 89.6811 60.2905 89.5547C59.9112 89.3019 59.6584 89.6811 59.2791 89.5547C58.8999 89.5547 58.3942 89.049 58.0149 88.9226C57.2564 88.6698 56.8772 88.2905 56.6243 87.532C56.3715 86.8999 55.9922 86.647 55.613 86.1414C55.2337 85.6357 55.1073 85.2564 54.4752 85.0036C54.3488 85.0036 54.6016 85.5093 54.6016 85.6357C54.8544 86.0149 55.2337 86.3942 55.4865 86.8999C55.8658 87.532 55.7394 87.532 55.3601 87.0263C54.8545 86.3942 54.3488 85.7621 53.9695 85.13C54.2224 85.3828 54.2224 85.13 53.9695 84.8772C53.7167 84.6243 53.3374 84.4979 53.211 84.2451C52.3261 83.4866 52.1996 82.3488 52.1996 81.211C52.1996 80.8317 52.3261 80.5789 52.3261 80.1996C52.3261 79.9468 52.0732 79.694 51.8204 79.4411C51.694 79.3147 51.5675 79.0619 51.5675 79.0619C51.3147 78.6826 51.1883 78.4298 50.9354 78.1769C50.809 78.0505 50.3033 77.6712 49.7977 77.292C51.8204 74.7636 54.4752 72.7409 57.5093 71.4767C57.5093 71.6031 57.6357 71.7295 57.6357 71.9824C58.0149 72.3616 58.2678 72.3616 58.647 72.488C58.647 72.9937 57.8885 73.1201 57.5093 72.9937C57.0036 72.8673 56.3715 72.7409 55.9922 73.2466C56.2451 73.373 57.0036 74.0051 56.8772 73.373H58.3942C58.647 73.373 59.2791 73.6258 59.4056 73.4994C59.532 73.4994 59.532 73.1201 59.6584 72.9937C59.532 72.9937 59.4056 72.8673 59.2791 72.9937C59.6584 72.6145 59.9112 72.8673 60.4169 73.1201C59.9112 73.373 60.2905 74.1315 60.6698 73.4994C61.049 72.9937 60.5433 72.7409 60.1641 72.488C60.6698 71.8559 60.9226 71.8559 61.4283 72.488C61.5547 72.1088 61.8075 72.2352 62.1868 72.2352V72.1088C62.0604 72.1088 61.8075 71.9824 61.6811 71.9824C62.0604 71.3503 61.8075 71.2238 62.3132 71.0974C62.6925 70.971 63.8303 71.0974 64.0831 70.7182C63.3246 70.8446 62.3132 70.971 61.5547 71.2238C61.1754 71.3503 60.9226 71.8559 60.5433 71.6031C60.1641 71.2238 60.7962 70.7182 61.049 70.5917H60.9226C62.1868 70.3389 63.5774 70.2125 64.968 70.2125C65.853 70.2125 66.7379 70.3389 67.6228 70.3389C67.37 70.4653 67.4964 70.5917 67.37 70.7182C66.9907 70.971 66.2322 71.2238 65.7266 71.4767C66.3587 71.4767 67.8757 72.1088 68.1285 71.2238C67.8757 71.2238 67.7493 71.2238 67.4964 71.0974C67.8757 70.8446 68.2549 70.5917 68.7606 70.4653C72.4268 71.3503 75.9665 73.373 78.4949 76.1542C78.6214 76.1542 78.4949 76.1542 78.4949 76.1542V76.1542ZM82.0347 83.7394C82.0347 83.613 82.1611 83.613 82.1611 83.613C82.2875 83.4866 82.1611 83.3601 82.2875 83.2337C82.414 83.1073 82.5404 83.1073 82.6668 82.9809L82.7932 82.8545C83.1725 83.7394 83.4253 84.6243 83.5517 85.6357L83.1725 85.7621C82.9196 85.7621 82.7932 85.6357 82.6668 85.5093L82.1611 85.0036C82.0347 84.7508 82.1611 84.6243 82.1611 84.3715C82.0347 84.1187 81.9083 83.8658 82.0347 83.7394ZM82.2875 93.6001C81.9083 93.2209 81.529 92.8416 81.2762 92.4624C81.0233 91.9567 81.1498 91.5774 81.1498 91.0717C81.1498 90.6925 80.8969 90.0604 81.1498 89.6811L81.529 89.3019C81.6554 89.049 81.6554 88.7962 81.9083 88.5433C82.1611 88.2905 82.414 88.1641 82.6668 87.9112C82.9196 87.6584 82.9196 87.532 83.0461 87.1527C83.1725 86.8999 83.4253 86.5206 83.6782 86.3942C83.8046 87.4056 83.931 88.2905 83.931 89.3019C83.931 90.9453 83.6782 92.7152 83.2989 94.2322C82.9196 94.1058 82.5404 93.853 82.2875 93.6001Z"
        fill="#6BADFD" />
    </g>
  </g>
</svg>