<svg width="28" height="28" viewBox="0 0 28 28" fill="none" xmlns="http://www.w3.org/2000/svg">
<g id="soil water content">
<g id="Subtract">
<path d="M14 9.15031L10.6938 17.1796H17.3062L14 9.15031Z" fill="#9ECAFF"/>
<path fill-rule="evenodd" clip-rule="evenodd" d="M14 25.6199C20.4176 25.6199 25.62 20.4174 25.62 13.9999C25.62 7.58233 20.4176 2.37988 14 2.37988C7.58246 2.37988 2.38 7.58233 2.38 13.9999C2.38 20.4174 7.58246 25.6199 14 25.6199ZM8.92171 17.8063C8.76994 18.1749 9.04093 18.5796 9.43953 18.5796H13.3V22.1064H14.7V18.5796L18.5605 18.5796C18.9591 18.5796 19.2301 18.1749 19.0783 17.8063L14.5178 6.73092C14.3274 6.26854 13.6726 6.26854 13.4822 6.73092L8.92171 17.8063Z" fill="#9ECAFF"/>
</g>
</g>
</svg>
