<svg width="28" height="28" viewBox="0 0 28 28" fill="none" xmlns="http://www.w3.org/2000/svg">
  <g id="soil water content">
    <path id="Union" fill-rule="evenodd" clip-rule="evenodd"
      d="M24.22 13.9999C24.22 19.6442 19.6444 24.2199 14 24.2199C8.35565 24.2199 3.78 19.6442 3.78 13.9999C3.78 8.35553 8.35565 3.77988 14 3.77988C19.6444 3.77988 24.22 8.35553 24.22 13.9999ZM25.62 13.9999C25.62 20.4174 20.4176 25.6199 14 25.6199C7.58246 25.6199 2.38 20.4174 2.38 13.9999C2.38 7.58233 7.58246 2.37988 14 2.37988C20.4176 2.37988 25.62 7.58233 25.62 13.9999ZM19.8152 7.84867C19.7786 7.65681 19.6635 7.48898 19.4977 7.38571C19.3319 7.28245 19.1305 7.25315 18.9422 7.3049C17.2684 7.76475 14.9195 8.84846 13.3673 10.6531C13.0906 10.9748 12.8378 11.3212 12.6187 11.6925C11.4193 10.5571 9.85175 9.8617 8.70365 9.54508C8.51516 9.4931 8.31353 9.52231 8.14755 9.62566C7.98158 9.72901 7.86639 9.89706 7.82987 10.0891C7.17085 13.5554 7.78031 15.8113 9.01083 17.1754C10.2206 18.5165 11.8944 18.8417 13.0652 18.7434C13.0488 19.389 12.9844 19.7335 12.8028 20.1608L12.5289 20.805L13.8173 21.3527L14.0912 20.7085C14.3739 20.0433 14.4502 19.4917 14.4662 18.7215C15.7443 18.5818 17.2061 18.041 18.3391 16.7897C19.8699 15.099 20.6591 12.2709 19.8152 7.84867ZM14.5735 17.2955C15.5039 17.1455 16.5152 16.7183 17.3013 15.85C18.3587 14.6822 19.1325 12.5777 18.5735 8.88879C17.176 9.38666 15.5337 10.2813 14.4287 11.566C13.7838 12.3158 13.3342 13.1832 13.2011 14.1767C13.1155 14.816 13.1576 15.532 13.3859 16.3305C13.9294 14.6864 15.0515 13.5761 15.7712 12.8641L15.8759 12.7604L16.3725 12.267L17.3592 13.2602L16.8626 13.7536L16.8048 13.8109C15.9807 14.629 14.9074 15.6944 14.5735 17.2955ZM9.0753 11.1404C10.0877 11.528 11.2256 12.1775 12.0101 13.077C11.9225 13.3699 11.8559 13.6745 11.8135 13.9908C11.6757 15.0199 11.7987 16.1367 12.244 17.3357C11.5078 17.2511 10.6801 16.9358 10.0504 16.2376C9.29012 15.3948 8.70097 13.8619 9.0753 11.1404Z"
      fill="#4090EE" />
  </g>
</svg>