<svg width="28" height="28" viewBox="0 0 28 28" fill="none" xmlns="http://www.w3.org/2000/svg">
<g id="soil water content">
<path id="Subtract" fill-rule="evenodd" clip-rule="evenodd" d="M8.20713 4.19995C6.73814 4.19995 5.5189 5.3352 5.41424 6.80046L4.41424 20.8005C4.29847 22.4213 5.58217 23.8 7.20713 23.8H12.5417C12.7051 23.8 12.8385 23.6692 12.8417 23.5059L12.9413 18.4753H15.0588L15.1584 23.5059C15.1616 23.6692 15.2949 23.8 15.4583 23.8H20.7929C22.4178 23.8 23.7015 22.4213 23.5857 20.8005L22.5857 6.80046C22.4811 5.3352 21.2618 4.19995 19.7929 4.19995H15.0821C14.9141 4.19995 14.7789 4.33791 14.7822 4.50589L14.8668 8.78149H13.1332L13.2179 4.50589C13.2212 4.33791 13.0859 4.19995 12.9179 4.19995H8.20713ZM12.9745 16.7955L13.1 10.4613L14.9001 10.4613L15.0255 16.7955H12.9745Z" fill="#9ECAFF"/>
</g>
</svg>
