<svg width="28" height="28" viewBox="0 0 28 28" fill="none" xmlns="http://www.w3.org/2000/svg">
<g id="soil water content">
<path id="Subtract (Stroke)" fill-rule="evenodd" clip-rule="evenodd" d="M16.0076 11.9924H21.5936L21.0326 6.69743C20.9749 6.15281 20.5156 5.73952 19.9679 5.73952H16.0076V11.9924ZM22.4862 13.3308C22.8042 13.3308 23.0521 13.0553 23.0186 12.739L22.3636 6.55643C22.2338 5.33102 21.2002 4.40112 19.9679 4.40112H15.2045C14.9089 4.40112 14.6692 4.64081 14.6692 4.93648V12.7954C14.6692 13.0911 14.9089 13.3308 15.2045 13.3308H22.4862ZM12.7954 14.6692H5.25857C4.98474 14.6692 4.75504 14.8758 4.72619 15.1482L4.11303 20.9359C3.96228 22.3589 5.0778 23.5989 6.50873 23.5989H12.7954C13.0911 23.5989 13.3308 23.3592 13.3308 23.0635V15.2046C13.3308 14.9089 13.0911 14.6692 12.7954 14.6692ZM5.51379 13.3308H12.7954C13.0911 13.3308 13.3308 13.0911 13.3308 12.7954V4.93648C13.3308 4.64081 13.0911 4.40112 12.7954 4.40112H8.03211C6.79984 4.40112 5.76622 5.33102 5.6364 6.55643L4.98142 12.739C4.94792 13.0553 5.19581 13.3308 5.51379 13.3308ZM11.9924 5.73952V11.9924H6.4064L6.96735 6.69743C7.02505 6.15281 7.48443 5.73952 8.03211 5.73952H11.9924ZM5.98103 16.0076L5.44398 21.0769C5.37698 21.7094 5.87276 22.2605 6.50873 22.2605H11.9924V16.0076H5.98103ZM16.0076 22.2605H21.4913C22.1272 22.2605 22.623 21.7094 22.556 21.077L22.019 16.0076H16.0076V22.2605ZM15.2045 23.5989C14.9089 23.5989 14.6692 23.3592 14.6692 23.0635V15.2046C14.6692 14.9089 14.9089 14.6692 15.2045 14.6692H22.7414C23.0153 14.6692 23.245 14.8758 23.2738 15.1482L23.887 20.9359C24.0377 22.3589 22.9222 23.5989 21.4913 23.5989H15.2045Z" fill="#4090EE"/>
</g>
</svg>
