<svg width="28" height="28" viewBox="0 0 28 28" fill="none" xmlns="http://www.w3.org/2000/svg">
<g id="soil water content">
<g id="Subtract">
<path d="M15.2046 4.40088C14.9089 4.40088 14.6692 4.64057 14.6692 4.93625V12.7953C14.6692 13.091 14.9089 13.3307 15.2046 13.3307H22.4864C22.8044 13.3307 23.0523 13.0552 23.0188 12.7389L22.3638 6.55622C22.234 5.33079 21.2003 4.40088 19.968 4.40088H15.2046Z" fill="#9ECAFF"/>
<path d="M12.7955 4.40088C13.0911 4.40088 13.3308 4.64057 13.3308 4.93625V12.7953C13.3308 13.091 13.0911 13.3307 12.7955 13.3307H5.5137C5.1957 13.3307 4.94781 13.0552 4.98131 12.7389L5.63631 6.55623C5.76613 5.3308 6.79977 4.40088 8.03205 4.40088H12.7955Z" fill="#9ECAFF"/>
<path d="M5.25847 14.6691C4.98463 14.6691 4.75493 14.8758 4.72608 15.1481L4.11291 20.936C3.96216 22.359 5.07769 23.5989 6.50865 23.5989H12.7955C13.0911 23.5989 13.3308 23.3593 13.3308 23.0636V15.2045C13.3308 14.9088 13.0911 14.6691 12.7955 14.6691H5.25847Z" fill="#9ECAFF"/>
<path d="M14.6692 23.0636C14.6692 23.3593 14.9089 23.5989 15.2046 23.5989H21.4914C22.9224 23.5989 24.0379 22.359 23.8872 20.936L23.274 15.1481C23.2452 14.8758 23.0155 14.6691 22.7416 14.6691H15.2046C14.9089 14.6691 14.6692 14.9088 14.6692 15.2045V23.0636Z" fill="#9ECAFF"/>
</g>
</g>
</svg>
