<svg width="28" height="28" viewBox="0 0 28 28" fill="none" xmlns="http://www.w3.org/2000/svg">
<g id="soil water content">
<path id="Subtract" fill-rule="evenodd" clip-rule="evenodd" d="M4.55005 5.55005C4.55005 4.99776 4.99776 4.55005 5.55005 4.55005H22.4501C23.0023 4.55005 23.45 4.99776 23.45 5.55005V10.0596L20.327 10.9519L13.4857 8.2154L13.3 8.14112L13.1144 8.2154L6.26447 10.9554L4.55005 10.5268V5.55005ZM20.4374 11.9604L23.45 11.0996V18.5426L22.4087 18.8029L17.6374 17.4397L17.5209 17.4064L17.402 17.4302L10.5579 18.799L4.55005 16.1289V11.5575L6.17878 11.9647L6.33563 12.0039L6.48574 11.9439L13.3 9.21816L20.1144 11.9439L20.2731 12.0074L20.4374 11.9604ZM4.55005 17.2232V22.45C4.55005 23.0023 4.99776 23.45 5.55005 23.45H22.45C23.0023 23.45 23.45 23.0023 23.45 22.4501V19.5733L22.5213 19.8055L22.3914 19.838L22.2627 19.8012L17.4792 18.4345L10.5981 19.8107L10.4422 19.8419L10.297 19.7774L4.55005 17.2232Z" fill="#9ECAFF"/>
</g>
</svg>
