<svg width="28" height="28" viewBox="0 0 28 28" fill="none" xmlns="http://www.w3.org/2000/svg">
<g id="soil water content">
<path id="Union" fill-rule="evenodd" clip-rule="evenodd" d="M22.4501 5.55005L5.55005 5.55005L5.55005 10.3446L6.36529 10.915L13.1144 8.2154L13.3001 8.14112L13.4858 8.2154L20.3118 10.9458L22.4501 10.1977V5.55005ZM5.55005 16.8973L5.55005 11.5651L6.01342 11.8893L6.23485 12.0442L6.48577 11.9439L13.3001 9.21816L20.1144 11.9439L20.2883 12.0135L20.4652 11.9516L22.4501 11.2572L22.45 18.7072L22.3287 18.7801L17.6374 17.4397L17.5209 17.4064L17.402 17.4302L10.5734 18.7959L5.82877 16.3554L5.55005 16.8973ZM5.55005 17.3366L5.55005 22.45L22.45 22.4501V19.8547L22.2627 19.8012L17.4793 18.4345L10.5981 19.8107L10.4268 19.845L10.2714 19.7651L5.55005 17.3366ZM5.55005 4.55005C4.99776 4.55005 4.55005 4.99776 4.55005 5.55005V22.45C4.55005 23.0023 4.99776 23.45 5.55005 23.45H22.45C23.0023 23.45 23.45 23.0023 23.45 22.4501V5.55005C23.45 4.99776 23.0023 4.55005 22.4501 4.55005H5.55005Z" fill="#4090EE"/>
</g>
</svg>
