<svg width="24" height="25" viewBox="0 0 24 25" fill="none" xmlns="http://www.w3.org/2000/svg">
<g id="waterlogging">
<path id="&#230;&#182;&#157;" d="M8.27344 12.9746H12.2812C12.3281 12.377 12.3516 11.7031 12.3516 10.9531H13.7578C13.7578 11.6211 13.7227 12.2949 13.6523 12.9746H19.2598C19.1777 14.6152 19.0898 15.9863 18.9961 17.0879C18.9023 18.3066 18.6152 19.1562 18.1348 19.6367C17.6426 20.1289 16.8457 20.375 15.7441 20.375C14.9824 20.3867 14.127 20.3809 13.1777 20.3574C13.1074 19.8652 13.0078 19.3555 12.8789 18.8281C14.0273 18.9336 15.0527 18.9805 15.9551 18.9688C16.9395 18.957 17.4844 18.3184 17.5898 17.0527C17.6953 15.9746 17.7656 15.0254 17.8008 14.2051H13.4766C13.0547 16.9707 11.1973 19.1387 7.9043 20.709C7.61133 20.2637 7.30078 19.8535 6.97266 19.4785C9.99609 18.2598 11.707 16.502 12.1055 14.2051H8.27344V12.9746ZM15.7969 3.5H17.0977V5.27539H20.4199V6.50586H17.0977V8.21094H15.7969V6.50586H12.4043V8.21094H11.1035V6.50586H8.02734V5.27539H11.1035V3.5H12.4043V5.27539H15.7969V3.5ZM8.23828 8.82617H20.1387V11.9023H18.873V10.0566H9.50391V11.8848H8.23828V8.82617ZM5.17969 13.3086C5.66016 13.4961 6.14062 13.6719 6.62109 13.8359C6.03516 16.2617 5.49609 18.5352 5.00391 20.6562L3.45703 20.1992C4.11328 18.0664 4.6875 15.7695 5.17969 13.3086ZM3.87891 8.24609C4.95703 9.04297 5.97656 9.83984 6.9375 10.6367L5.93555 11.7793C4.91602 10.8184 3.9375 9.98047 3 9.26562L3.87891 8.24609ZM4.72266 3.69336C5.85938 4.5957 6.79102 5.36914 7.51758 6.01367L6.49805 7.05078C5.66602 6.24219 4.77539 5.43945 3.82617 4.64258L4.72266 3.69336Z" fill="white"/>
</g>
</svg>
