<svg width="28" height="28" viewBox="0 0 28 28" fill="none" xmlns="http://www.w3.org/2000/svg">
<g id="soil water content">
<path id="Union" fill-rule="evenodd" clip-rule="evenodd" d="M7.1876 17.1234C7.1876 14.9893 8.24764 12.4883 9.8024 9.98286C11.1126 7.87158 12.6836 5.89726 14 4.32362C15.3164 5.89726 16.8874 7.87158 18.1976 9.98286C19.7523 12.4883 20.8124 14.9893 20.8124 17.1234C20.8124 19.5292 20.0283 21.249 18.8666 22.3693C17.6948 23.4994 16.0115 24.1417 14 24.1417C11.9885 24.1417 10.3052 23.4994 9.13333 22.3693C7.97164 21.249 7.1876 19.5292 7.1876 17.1234ZM14.424 2.65518C14.2009 2.39261 13.7991 2.39261 13.576 2.65518C10.7254 6.01003 5.7876 12.0496 5.7876 17.1234C5.7876 22.5753 9.38052 25.5417 14 25.5417C18.6195 25.5417 22.2124 22.5753 22.2124 17.1234C22.2124 12.0496 17.2745 6.01003 14.424 2.65518ZM9.82824 17.4686V16.7686H8.42824V17.4686C8.42824 20.4689 10.8605 22.9011 13.8608 22.9011H14.5608V21.5011H13.8608C11.6337 21.5011 9.82824 19.6957 9.82824 17.4686Z" fill="#4090EE"/>
</g>
</svg>
